# xmcd CD database file
#
# Track frame offsets:
#	182
#	12445
#	26477
#	40132
#	53117
#	65927
#	80435
#	93815
#	107575
#	120362
#	155197
#	170127
#	188402
#	200542
#	213140
#	225675
#	240380
#	253950
#	269215
#	283405
#	295217
#	310015
#	323592
#
# Disc length: 4490 seconds
#
# Revision: 0
# Processed by: cddbd v1.5.1PL0 Copyright (c) Steve Scherf et al.
# Submitted via: CDex 1.51
#
DISCID=4d118817
DTITLE=Charlie Parker - Early Bird
DYEAR=1900
DGENRE=Jazz
TTITLE0=Swingmatism
TTITLE1=The Jumpin' Blues
TTITLE2=I Found A New Baby
TTITLE3=Body And Soul
TTITLE4=Moten Swing
TTITLE5=Coquette
TTITLE6=Lady Be Good
TTITLE7=Honeysuckle Rose
TTITLE8=Cherokee
TTITLE9=Sweet Georgia Brown
TTITLE10=Red Cross
TTITLE11=Floogie Boo
TTITLE12=Groovin' High
TTITLE13=Dizzy Atmosphere
TTITLE14=All The Things You Are
TTITLE15=Salt Peanuts
TTITLE16=Shaw 'Nuff
TTITLE17=Lover Man
TTITLE18=Hot House
TTITLE19=The Street Beat
TTITLE20=Now's The Time
TTITLE21=Thriving on a Riff (Anthropology)
TTITLE22=Koko
EXTD=
EXTT0=
EXTT1=
EXTT2=
EXTT3=
EXTT4=
EXTT5=
EXTT6=
EXTT7=
EXTT8=
EXTT9=
EXTT10=
EXTT11=
EXTT12=
EXTT13=
EXTT14=
EXTT15=
EXTT16=
EXTT17=
EXTT18=
EXTT19=
EXTT20=
EXTT21=
EXTT22=
PLAYORDER=
